<?xml version="1.0" standalone="no"?><!DOCTYPE svg PUBLIC "-//W3C//DTD SVG 1.1//EN" "http://www.w3.org/Graphics/SVG/1.1/DTD/svg11.dtd"><svg t="1496369673220" class="icon" style="" viewBox="0 0 1024 1024" version="1.1" xmlns="http://www.w3.org/2000/svg" p-id="6675" xmlns:xlink="http://www.w3.org/1999/xlink" width="200" height="200"><defs><style type="text/css"></style></defs><path d="M111.3 623.3c61.4 0 111.3-49.9 111.3-111.3s-49.9-111.3-111.3-111.3S0 450.6 0 512 49.9 623.3 111.3 623.3z" p-id="6676"></path><path d="M512 623.3c61.4 0 111.3-49.9 111.3-111.3S573.4 400.7 512 400.7 400.7 450.6 400.7 512 450.6 623.3 512 623.3z" p-id="6677"></path><path d="M912.7 623.3c61.4 0 111.3-49.9 111.3-111.3s-49.9-111.3-111.3-111.3S801.4 450.6 801.4 512 851.3 623.3 912.7 623.3z" p-id="6678"></path></svg>