<?xml version="1.0" standalone="no"?><!DOCTYPE svg PUBLIC "-//W3C//DTD SVG 1.1//EN" "http://www.w3.org/Graphics/SVG/1.1/DTD/svg11.dtd"><svg t="1496319053204" class="icon" style="" viewBox="0 0 1024 1024" version="1.1" xmlns="http://www.w3.org/2000/svg" p-id="5110" xmlns:xlink="http://www.w3.org/1999/xlink" width="200" height="200"><defs><style type="text/css"></style></defs><path d="M512 96C282.2 96 96 282.2 96 512c0 229.8 186.2 416 416 416 229.8 0 416-186.2 416-416C928 282.2 741.8 96 512 96zM512 893.4c-210.2 0-381.4-171-381.4-381.4 0-210.2 171-381.4 381.4-381.4 210.2 0 381.4 171 381.4 381.4C893.4 722.2 722.2 893.4 512 893.4zM519.2 292c-86.4 0-134.6 40.6-135.2 124.4l37.6 0c-1.2-60.8 31-93 95.8-93 46.4 0 85.2 32.4 85.2 79.6 0 30.6-16.6 55.4-38.8 76.2-45.2 41.6-58 72-60.2 129l38 0c2.2-51.6 1-61.4 46.6-106.6 30.4-28.4 51.8-56.6 51.8-100.4C640 332.8 585.2 292 519.2 292zM520.6 664.6c-18.8 0-34 15-34 33.6 0 18.6 15.2 33.8 34 33.8 18.8 0 34-15 34-33.8C554.6 679.6 539.4 664.6 520.6 664.6z" p-id="5111"></path></svg>