<?xml version="1.0" standalone="no"?><!DOCTYPE svg PUBLIC "-//W3C//DTD SVG 1.1//EN" "http://www.w3.org/Graphics/SVG/1.1/DTD/svg11.dtd"><svg t="1496319025664" class="icon" style="" viewBox="0 0 1024 1024" version="1.1" xmlns="http://www.w3.org/2000/svg" p-id="4399" xmlns:xlink="http://www.w3.org/1999/xlink" width="200" height="200"><defs><style type="text/css"></style></defs><path d="M172.346666 906.17146l241.778429 0 0 0L172.346666 906.17146 172.346666 906.17146 172.346666 906.17146zM172.346666 906.17146" p-id="4400"></path><path d="M232.789696 724.836062l120.889665 0 0 120.889665L232.789696 845.725727 232.789696 724.836062 232.789696 724.836062zM232.789696 724.836062" p-id="4401"></path><path d="M535.014759 603.946397l60.442129 0 0 241.778429L535.014759 845.724826 535.014759 603.946397 535.014759 603.946397zM535.014759 603.946397" p-id="4402"></path><path d="M111.900031 966.613589l362.668093 0 0-362.667192L111.900031 603.946397 111.900031 966.613589 111.900031 966.613589zM172.346666 906.17146 172.346666 664.393933l241.778429 0 0 241.773923 0 0.003605L172.346666 906.17146 172.346666 906.17146 172.346666 906.17146zM172.346666 906.17146" p-id="4403"></path><path d="M535.014759 906.17146l120.889665 0 0 60.442129L535.014759 966.613589 535.014759 906.17146 535.014759 906.17146zM535.014759 906.17146" p-id="4404"></path><path d="M837.235317 724.836062 897.681952 724.836062l0 60.446635-60.446635 0L837.235317 724.836062 837.235317 724.836062zM837.235317 724.836062" p-id="4405"></path><path d="M716.346553 603.946397 897.681952 603.946397l0 60.446635L716.346553 664.393032 716.346553 603.946397 716.346553 603.946397zM716.346553 603.946397" p-id="4406"></path><path d="M655.899919 301.725839l120.892368 0 0 120.889665L655.899919 422.615504 655.899919 301.725839 655.899919 301.725839zM655.899919 301.725839" p-id="4407"></path><path d="M897.681952 180.836175 535.014759 180.836175l0 362.668093L897.681952 543.504268 897.681952 180.836175 897.681952 180.836175zM837.235317 483.057633 595.45779 483.057633 595.45779 241.278304l241.777527 0L837.235317 483.057633 837.235317 483.057633zM837.235317 483.057633" p-id="4408"></path><path d="M111.900031 543.504268l362.668093 0 0-362.668093L111.900031 180.836175 111.900031 543.504268 111.900031 543.504268zM172.346666 241.278304l241.778429 0 0 241.778429L172.346666 483.056732 172.346666 241.278304 172.346666 241.278304zM172.346666 241.278304" p-id="4409"></path><path d="M837.235317 906.17146 716.346553 906.17146l0 60.442129L897.681952 966.613589 897.681952 845.725727l-60.446635 0L837.235317 906.17146zM837.235317 906.17146" p-id="4410"></path><path d="M655.899919 724.836062l0 120.889665 120.892368 0L776.792287 785.282697l-60.445734 0 0-60.446635L655.899919 724.836062zM655.899919 724.836062" p-id="4411"></path><path d="M232.789696 301.725839l120.889665 0 0 120.889665L232.789696 422.615504 232.789696 301.725839 232.789696 301.725839zM232.789696 301.725839" p-id="4412"></path></svg>